<?xml version="1.0" encoding="UTF-8" standalone="no"?>
<svg
   xmlns:dc="http://purl.org/dc/elements/1.1/"
   xmlns:cc="http://creativecommons.org/ns#"
   xmlns:rdf="http://www.w3.org/1999/02/22-rdf-syntax-ns#"
   xmlns:svg="http://www.w3.org/2000/svg"
   xmlns="http://www.w3.org/2000/svg"
   xmlns:sodipodi="http://sodipodi.sourceforge.net/DTD/sodipodi-0.dtd"
   xmlns:inkscape="http://www.inkscape.org/namespaces/inkscape"
   width="838pt"
   height="838pt"
   viewBox="0 0 838 838"
   version="1.1"
   id="svg14"
   sodipodi:docname="js.svg"
   inkscape:version="0.92.1 r">
  <metadata
     id="metadata20">
    <rdf:RDF>
      <cc:Work
         rdf:about="">
        <dc:format>image/svg+xml</dc:format>
        <dc:type
           rdf:resource="http://purl.org/dc/dcmitype/StillImage" />
        <dc:title></dc:title>
      </cc:Work>
    </rdf:RDF>
  </metadata>
  <defs
     id="defs18" />
  <sodipodi:namedview
     pagecolor="#ffffff"
     bordercolor="#666666"
     borderopacity="1"
     objecttolerance="10"
     gridtolerance="10"
     guidetolerance="10"
     inkscape:pageopacity="0"
     inkscape:pageshadow="2"
     inkscape:window-width="1366"
     inkscape:window-height="697"
     id="namedview16"
     showgrid="false"
     inkscape:zoom="0.21121718"
     inkscape:cx="588.83225"
     inkscape:cy="516.78281"
     inkscape:window-x="0"
     inkscape:window-y="27"
     inkscape:window-maximized="1"
     inkscape:current-layer="g26" />
  <g
     transform="matrix(1.4397591,0,0,1.439583,69.029125,115.56264)"
     id="g11">
    <path
       class="st0"
       d="m 82,51 c 112,0 224,0 336,0 7,0 7,0 7,7 -2.2,1.7 -1.4,4.3 -1.6,6.4 -3.5,37.7 -6.8,75.3 -10.2,113 -6.5,72.8 -12.9,145.7 -19.3,218.6 -0.3,3.7 -1.8,5.1 -5.2,6 -43.8,12.2 -87.6,24.5 -131.3,36.9 -3.2,0.9 -6,1 -9.2,0.1 -43.3,-12.3 -86.5,-24.6 -129.8,-36.6 -4.3,-1.2 -5.8,-3 -6.2,-7.3 -3.6,-42.5 -7.4,-85 -11.2,-127.4 C 97.2,224.6 93.2,181.4 89.4,138.3 87.1,112.6 85,86.8 82.8,61.1 83.5,57.5 82.2,54.3 82,51 Z m 171.1,195.7 c 0,52.3 0,104.6 0,156.9 0,1.5 0,3 0,4.5 0,3.3 1.5,3.9 4.5,3.1 35.1,-9.7 70.3,-19.4 105.5,-29.1 2.7,-0.7 3.9,-2 4,-4.8 0.2,-4.3 0.7,-8.6 1.1,-12.9 2.9,-31.8 5.9,-63.6 8.8,-95.3 2.5,-28.1 4.7,-56.3 7.2,-84.5 2.8,-31.8 5.9,-63.6 8.8,-95.3 0.6,-6.8 0.1,-7.4 -6.8,-7.4 -41.8,0 -83.6,0 -125.5,0 -7.5,0 -7.5,0 -7.5,7.3 -0.1,52.6 -0.1,105.1 -0.1,157.5 z m -13.9,-6.1 c 0,-36 0,-72 0,-107.9 0,-6.4 0,-6.4 -6.6,-6.4 -6.8,0 -13.7,0.3 -20.5,-0.1 -4.8,-0.3 -6.1,1.2 -6.1,6 0.2,56 0.1,111.9 0.2,167.9 0,4.8 -1.1,5.6 -5.6,4.3 -18.7,-5.4 -37.5,-10.4 -56.3,-15.8 -3.6,-1 -4.7,-0.5 -4.6,3.4 0.2,10.2 0.3,20.3 0,30.5 -0.1,4 1.4,5.4 5,6.4 29.7,8.1 59.4,16.4 89,24.8 4.4,1.2 5.6,0.8 5.5,-4.1 -0.1,-36.3 0,-72.6 0,-109 z"
       id="path5"
       inkscape:connector-curvature="0"
       style="fill:#d5ba33" />
    <path
       class="st1"
       d="m 82.8,60.9 c -0.6,0 -1.2,0.1 -1.8,0.1 0.5,-3.3 -1.1,-6.8 1,-10 0.2,3.3 1.5,6.5 0.8,9.9 z"
       id="path7"
       inkscape:connector-curvature="0"
       style="fill:#fed93e" />
    <path
       class="st1"
       d="m 253.1,246.7 c 0,-52.5 0,-105 0,-157.4 0,-7.3 0,-7.3 7.5,-7.3 41.8,0 83.6,0 125.5,0 7,0 7.5,0.5 6.8,7.4 -2.9,31.8 -5.9,63.6 -8.8,95.3 -2.5,28.1 -4.7,56.3 -7.2,84.5 -2.8,31.8 -5.8,63.6 -8.8,95.3 -0.4,4.3 -0.9,8.6 -1.1,12.9 -0.1,2.8 -1.3,4.1 -4,4.8 -35.2,9.6 -70.3,19.3 -105.5,29.1 -3,0.8 -4.5,0.2 -4.5,-3.1 0,-1.5 0,-3 0,-4.5 0.1,-52.3 0.1,-104.6 0.1,-157 z m 13.8,-46.2 c 0,23.3 0.1,46.7 -0.1,70 0,3.6 0.9,4.5 4.6,3.8 19.8,-3.7 39.7,-7.1 59.5,-10.7 3.3,-0.6 4.1,0.2 3.9,3.4 -0.6,8.5 -1.1,17 -1.3,25.5 -0.1,3.9 -1.7,5.4 -5.3,6.3 -19,4.9 -38,10.1 -57,15 -3.1,0.8 -4.5,1.9 -4.4,5.3 0.2,10.7 0.2,21.3 0,32 0,3.2 0.7,4 4,3.1 28.3,-7.5 56.7,-14.9 85.1,-22.3 2.6,-0.7 3.8,-1.7 4.1,-4.6 2.5,-33.9 5.2,-67.8 7.9,-101.6 0.5,-6.1 0.4,-6.2 -5.8,-5.4 -18.7,2.3 -37.4,4.5 -56,7 -4.5,0.6 -6.1,-0.3 -6,-5.2 0.3,-16.5 0.3,-33 0,-49.5 -0.1,-4.5 1.1,-6 5.8,-5.9 20.7,0.2 41.3,0 62,0.2 3.5,0 5.1,-0.8 5.3,-4.6 0.6,-10.3 1.6,-20.6 2.7,-30.9 0.4,-4 -0.7,-5.1 -4.7,-5.1 -33,0.1 -66,0.2 -99,0 -4.2,0 -5.3,1.3 -5.3,5.4 0.1,22.8 0,45.8 0,68.8 z"
       id="path9"
       inkscape:connector-curvature="0"
       style="fill:#fed93e" />
  </g>
  <g
     transform="matrix(0.74999997,0,0,0.74999997,632.41145,126.12745)"
     id="g26" />
</svg>
